<?xml version="1.0" encoding="UTF-8" standalone="no"?>
<!DOCTYPE svg PUBLIC "-//W3C//DTD SVG 1.1//EN"
 "http://www.w3.org/Graphics/SVG/1.1/DTD/svg11.dtd">
<!-- Generated by graphviz version 2.38.0 (20140413.2041)
 -->
<!-- Title: %3 Pages: 1 -->
<svg width="184pt" height="218pt"
 viewBox="0.00 0.00 184.00 217.60" xmlns="http://www.w3.org/2000/svg" xmlns:xlink="http://www.w3.org/1999/xlink">
<g id="graph0" class="graph" transform="scale(1 1) rotate(0) translate(4 213.596)">
<title>%3</title>
<polygon fill="white" stroke="none" points="-4,4 -4,-213.596 180,-213.596 180,4 -4,4"/>
<!-- fake -->
<g id="node1" class="node"><title>fake</title>
</g>
<!-- S1 -->
<g id="node4" class="node"><title>S1</title>
<ellipse fill="none" stroke="black" cx="27" cy="-111.798" rx="20.6302" ry="20.6302"/>
<ellipse fill="none" stroke="black" cx="27" cy="-111.798" rx="24.5979" ry="24.5979"/>
<text text-anchor="middle" x="27" y="-108.098" font-family="Times New Roman,serif" font-size="14.00">S1</text>
</g>
<!-- fake&#45;&gt;S1 -->
<g id="edge1" class="edge"><title>fake&#45;&gt;S1</title>
<path fill="none" stroke="black" stroke-width="2" d="M27,-173.33C27,-165.524 27,-156.014 27,-146.866"/>
<polygon fill="black" stroke="black" stroke-width="2" points="30.5001,-146.801 27,-136.802 23.5001,-146.802 30.5001,-146.801"/>
</g>
<!-- sink -->
<g id="node2" class="node"><title>sink</title>
<ellipse fill="none" stroke="black" cx="99" cy="-191.596" rx="27" ry="18"/>
<text text-anchor="middle" x="99" y="-187.896" font-family="Times New Roman,serif" font-size="14.00">sink</text>
</g>
<!-- sink&#45;&gt;sink -->
<g id="edge6" class="edge"><title>sink&#45;&gt;sink</title>
<path fill="none" stroke="black" d="M125.795,-194.964C135.78,-195.074 144,-193.952 144,-191.596 144,-190.124 140.789,-189.134 135.943,-188.625"/>
<polygon fill="black" stroke="black" points="135.924,-185.121 125.795,-188.229 135.651,-192.116 135.924,-185.121"/>
<text text-anchor="middle" x="147.5" y="-187.896" font-family="Times New Roman,serif" font-size="14.00">0</text>
</g>
<!-- sink&#45;&gt;sink -->
<g id="edge7" class="edge"><title>sink&#45;&gt;sink</title>
<path fill="none" stroke="black" d="M124.557,-197.585C143.26,-199.604 162,-197.608 162,-191.596 162,-186.665 149.39,-184.436 134.534,-184.908"/>
<polygon fill="black" stroke="black" points="134.288,-181.417 124.557,-185.608 134.778,-188.4 134.288,-181.417"/>
<text text-anchor="middle" x="165.5" y="-187.896" font-family="Times New Roman,serif" font-size="14.00">1</text>
</g>
<!-- S2 -->
<g id="node3" class="node"><title>S2</title>
<ellipse fill="none" stroke="black" cx="27" cy="-18" rx="27" ry="18"/>
<text text-anchor="middle" x="27" y="-14.3" font-family="Times New Roman,serif" font-size="14.00">S2</text>
</g>
<!-- S2&#45;&gt;S2 -->
<g id="edge5" class="edge"><title>S2&#45;&gt;S2</title>
<path fill="none" stroke="black" d="M51.5325,-25.752C62.5078,-26.4902 72,-23.9063 72,-18 72,-14.0317 67.7151,-11.5632 61.5743,-10.5944"/>
<polygon fill="black" stroke="black" points="61.6472,-7.09491 51.5325,-10.248 61.4059,-14.0908 61.6472,-7.09491"/>
<text text-anchor="middle" x="75.5" y="-14.3" font-family="Times New Roman,serif" font-size="14.00">1</text>
</g>
<!-- S2&#45;&gt;S1 -->
<g id="edge4" class="edge"><title>S2&#45;&gt;S1</title>
<path fill="none" stroke="black" d="M27,-36.0045C27,-47.3532 27,-62.6741 27,-76.4942"/>
<polygon fill="black" stroke="black" points="23.5001,-76.6792 27,-86.6793 30.5001,-76.6793 23.5001,-76.6792"/>
<text text-anchor="middle" x="30.5" y="-57.8" font-family="Times New Roman,serif" font-size="14.00">0</text>
</g>
<!-- S1&#45;&gt;S2 -->
<g id="edge2" class="edge"><title>S1&#45;&gt;S2</title>
<path fill="none" stroke="black" d="M18.355,-88.4921C15.3226,-78.0554 13.0946,-65.4325 15,-54 15.4851,-51.0893 16.1825,-48.0962 17.0004,-45.144"/>
<polygon fill="black" stroke="black" points="20.3903,-46.0349 20.1119,-35.4437 13.7248,-43.8968 20.3903,-46.0349"/>
<text text-anchor="middle" x="18.5" y="-57.8" font-family="Times New Roman,serif" font-size="14.00">0</text>
</g>
<!-- S1&#45;&gt;S1 -->
<g id="edge3" class="edge"><title>S1&#45;&gt;S1</title>
<path fill="none" stroke="black" d="M50.7662,-119.579C61.0194,-120.216 69.7982,-117.622 69.7982,-111.798 69.7982,-108.067 66.1954,-105.662 60.9102,-104.582"/>
<polygon fill="black" stroke="black" points="60.9454,-101.079 50.7662,-104.017 60.5561,-108.068 60.9454,-101.079"/>
<text text-anchor="middle" x="73.2982" y="-108.098" font-family="Times New Roman,serif" font-size="14.00">1</text>
</g>
</g>
</svg>
