<?xml version="1.0" encoding="UTF-8" standalone="no"?>
<!DOCTYPE svg PUBLIC "-//W3C//DTD SVG 1.1//EN"
 "http://www.w3.org/Graphics/SVG/1.1/DTD/svg11.dtd">
<!-- Generated by graphviz version 2.38.0 (20140413.2041)
 -->
<!-- Title: %3 Pages: 1 -->
<svg width="128pt" height="386pt"
 viewBox="0.00 0.00 128.09 385.79" xmlns="http://www.w3.org/2000/svg" xmlns:xlink="http://www.w3.org/1999/xlink">
<g id="graph0" class="graph" transform="scale(1 1) rotate(0) translate(4 381.787)">
<title>%3</title>
<polygon fill="white" stroke="none" points="-4,4 -4,-381.787 124.092,-381.787 124.092,4 -4,4"/>
<!-- fake -->
<g id="node1" class="node"><title>fake</title>
</g>
<!-- q0 -->
<g id="node4" class="node"><title>q0</title>
<ellipse fill="none" stroke="black" cx="47.5461" cy="-286.787" rx="27" ry="18"/>
<text text-anchor="middle" x="47.5461" y="-283.087" font-family="Times New Roman,serif" font-size="14.00">q0</text>
</g>
<!-- fake&#45;&gt;q0 -->
<g id="edge1" class="edge"><title>fake&#45;&gt;q0</title>
<path fill="none" stroke="black" stroke-width="2" d="M47.5461,-341.6C47.5461,-333.576 47.5461,-323.834 47.5461,-314.856"/>
<polygon fill="black" stroke="black" stroke-width="2" points="51.0462,-314.815 47.5461,-304.815 44.0462,-314.815 51.0462,-314.815"/>
</g>
<!-- q0.q1.q2 -->
<g id="node2" class="node"><title>q0.q1.q2</title>
<ellipse fill="none" stroke="black" cx="47.5461" cy="-47.5461" rx="43.5884" ry="43.5884"/>
<ellipse fill="none" stroke="black" cx="47.5461" cy="-47.5461" rx="47.5923" ry="47.5923"/>
<text text-anchor="middle" x="47.5461" y="-43.8461" font-family="Times New Roman,serif" font-size="14.00">q0.q1.q2</text>
</g>
<!-- q0.q1.q2&#45;&gt;q0.q1.q2 -->
<g id="edge6" class="edge"><title>q0.q1.q2&#45;&gt;q0.q1.q2</title>
<path fill="none" stroke="black" d="M93.4892,-60.8352C104.728,-59.8508 113.092,-55.4211 113.092,-47.5461 113.092,-42.2551 109.317,-38.5194 103.43,-36.3389"/>
<polygon fill="black" stroke="black" points="103.994,-32.8812 93.4892,-34.2571 102.559,-39.7326 103.994,-32.8812"/>
<text text-anchor="middle" x="116.592" y="-43.8461" font-family="Times New Roman,serif" font-size="14.00">0</text>
</g>
<!-- q1.q2 -->
<g id="node3" class="node"><title>q1.q2</title>
<ellipse fill="none" stroke="black" cx="47.5461" cy="-181.939" rx="31.712" ry="31.712"/>
<ellipse fill="none" stroke="black" cx="47.5461" cy="-181.939" rx="35.695" ry="35.695"/>
<text text-anchor="middle" x="47.5461" y="-178.239" font-family="Times New Roman,serif" font-size="14.00">q1.q2</text>
</g>
<!-- q0.q1.q2&#45;&gt;q1.q2 -->
<g id="edge7" class="edge"><title>q0.q1.q2&#45;&gt;q1.q2</title>
<path fill="none" stroke="black" d="M47.5461,-95.3177C47.5461,-108.426 47.5461,-122.649 47.5461,-135.669"/>
<polygon fill="black" stroke="black" points="44.0462,-135.808 47.5461,-145.808 51.0462,-135.808 44.0462,-135.808"/>
<text text-anchor="middle" x="51.0461" y="-116.892" font-family="Times New Roman,serif" font-size="14.00">1</text>
</g>
<!-- q1.q2&#45;&gt;q0.q1.q2 -->
<g id="edge4" class="edge"><title>q1.q2&#45;&gt;q0.q1.q2</title>
<path fill="none" stroke="black" d="M38.6709,-147.016C37.3706,-140.765 36.2379,-134.263 35.5461,-128.092 34.6709,-120.285 34.7596,-112.068 35.431,-103.999"/>
<polygon fill="black" stroke="black" points="38.9274,-104.226 36.5643,-93.8984 31.971,-103.446 38.9274,-104.226"/>
<text text-anchor="middle" x="39.0461" y="-116.892" font-family="Times New Roman,serif" font-size="14.00">0</text>
</g>
<!-- q1.q2&#45;&gt;q1.q2 -->
<g id="edge5" class="edge"><title>q1.q2&#45;&gt;q1.q2</title>
<path fill="none" stroke="black" d="M81.7248,-193.187C92.697,-193.071 101.393,-189.322 101.393,-181.939 101.393,-177.094 97.6481,-173.814 91.9723,-172.099"/>
<polygon fill="black" stroke="black" points="92.108,-168.585 81.7248,-170.692 91.1557,-175.52 92.108,-168.585"/>
<text text-anchor="middle" x="104.893" y="-178.239" font-family="Times New Roman,serif" font-size="14.00">1</text>
</g>
<!-- q0&#45;&gt;q1.q2 -->
<g id="edge3" class="edge"><title>q0&#45;&gt;q1.q2</title>
<path fill="none" stroke="black" d="M47.5461,-268.34C47.5461,-257.272 47.5461,-242.403 47.5461,-228.175"/>
<polygon fill="black" stroke="black" points="51.0462,-227.992 47.5461,-217.992 44.0462,-227.992 51.0462,-227.992"/>
<text text-anchor="middle" x="51.0461" y="-239.587" font-family="Times New Roman,serif" font-size="14.00">1</text>
</g>
<!-- q0&#45;&gt;q0 -->
<g id="edge2" class="edge"><title>q0&#45;&gt;q0</title>
<path fill="none" stroke="black" d="M72.9896,-293.477C83.574,-293.939 92.5461,-291.708 92.5461,-286.787 92.5461,-283.557 88.6821,-281.486 83.0343,-280.574"/>
<polygon fill="black" stroke="black" points="83.1448,-277.076 72.9896,-280.096 82.8118,-284.068 83.1448,-277.076"/>
<text text-anchor="middle" x="96.0461" y="-283.087" font-family="Times New Roman,serif" font-size="14.00">0</text>
</g>
</g>
</svg>
