<?xml version="1.0" encoding="UTF-8" standalone="no"?>
<!DOCTYPE svg PUBLIC "-//W3C//DTD SVG 1.1//EN"
 "http://www.w3.org/Graphics/SVG/1.1/DTD/svg11.dtd">
<!-- Generated by graphviz version 2.38.0 (20140413.2041)
 -->
<!-- Title: %3 Pages: 1 -->
<svg width="304pt" height="443pt"
 viewBox="0.00 0.00 303.97 442.89" xmlns="http://www.w3.org/2000/svg" xmlns:xlink="http://www.w3.org/1999/xlink">
<g id="graph0" class="graph" transform="scale(1 1) rotate(0) translate(4 438.889)">
<title>%3</title>
<polygon fill="white" stroke="none" points="-4,4 -4,-438.889 299.973,-438.889 299.973,4 -4,4"/>
<!-- fake -->
<g id="node1" class="node"><title>fake</title>
</g>
<!-- A -->
<g id="node3" class="node"><title>A</title>
<ellipse fill="none" stroke="black" cx="146.973" cy="-343.889" rx="27" ry="18"/>
<text text-anchor="middle" x="146.973" y="-340.189" font-family="Times New Roman,serif" font-size="14.00">A</text>
</g>
<!-- fake&#45;&gt;A -->
<g id="edge1" class="edge"><title>fake&#45;&gt;A</title>
<path fill="none" stroke="black" stroke-width="2" d="M146.973,-398.702C146.973,-390.679 146.973,-380.937 146.973,-371.958"/>
<polygon fill="black" stroke="black" stroke-width="2" points="150.473,-371.918 146.973,-361.918 143.473,-371.918 150.473,-371.918"/>
</g>
<!-- sink -->
<g id="node2" class="node"><title>sink</title>
<ellipse fill="none" stroke="black" cx="218.973" cy="-416.889" rx="27" ry="18"/>
<text text-anchor="middle" x="218.973" y="-413.189" font-family="Times New Roman,serif" font-size="14.00">sink</text>
</g>
<!-- sink&#45;&gt;sink -->
<g id="edge10" class="edge"><title>sink&#45;&gt;sink</title>
<path fill="none" stroke="black" d="M245.768,-420.257C255.754,-420.367 263.973,-419.245 263.973,-416.889 263.973,-415.417 260.762,-414.427 255.916,-413.918"/>
<polygon fill="black" stroke="black" points="255.897,-410.414 245.768,-413.522 255.624,-417.409 255.897,-410.414"/>
<text text-anchor="middle" x="267.473" y="-413.189" font-family="Times New Roman,serif" font-size="14.00">1</text>
</g>
<!-- sink&#45;&gt;sink -->
<g id="edge11" class="edge"><title>sink&#45;&gt;sink</title>
<path fill="none" stroke="black" d="M244.53,-422.878C263.233,-424.897 281.973,-422.901 281.973,-416.889 281.973,-411.958 269.363,-409.728 254.507,-410.201"/>
<polygon fill="black" stroke="black" points="254.261,-406.71 244.53,-410.901 254.751,-413.693 254.261,-406.71"/>
<text text-anchor="middle" x="285.473" y="-413.189" font-family="Times New Roman,serif" font-size="14.00">0</text>
</g>
<!-- A&#45;&gt;A -->
<g id="edge2" class="edge"><title>A&#45;&gt;A</title>
<path fill="none" stroke="black" d="M172.417,-350.58C183.001,-351.041 191.973,-348.811 191.973,-343.889 191.973,-340.659 188.109,-338.589 182.461,-337.677"/>
<polygon fill="black" stroke="black" points="182.572,-334.178 172.417,-337.199 182.239,-341.17 182.572,-334.178"/>
<text text-anchor="middle" x="195.473" y="-340.189" font-family="Times New Roman,serif" font-size="14.00">0</text>
</g>
<!-- A.B -->
<g id="node5" class="node"><title>A.B</title>
<ellipse fill="none" stroke="black" cx="60.9731" cy="-256.889" rx="27" ry="18"/>
<text text-anchor="middle" x="60.9731" y="-253.189" font-family="Times New Roman,serif" font-size="14.00">A.B</text>
</g>
<!-- A&#45;&gt;A.B -->
<g id="edge3" class="edge"><title>A&#45;&gt;A.B</title>
<path fill="none" stroke="black" d="M132.384,-328.47C118.794,-315.038 98.3499,-294.831 82.8142,-279.476"/>
<polygon fill="black" stroke="black" points="85.2061,-276.919 75.6334,-272.379 80.2854,-281.898 85.2061,-276.919"/>
<text text-anchor="middle" x="112.473" y="-296.689" font-family="Times New Roman,serif" font-size="14.00">1</text>
</g>
<!-- A.C -->
<g id="node4" class="node"><title>A.C</title>
<ellipse fill="none" stroke="black" cx="60.9731" cy="-29.9977" rx="25.9957" ry="25.9957"/>
<ellipse fill="none" stroke="black" cx="60.9731" cy="-29.9977" rx="29.9954" ry="29.9954"/>
<text text-anchor="middle" x="60.9731" y="-26.2977" font-family="Times New Roman,serif" font-size="14.00">A.C</text>
</g>
<!-- A.C&#45;&gt;A -->
<g id="edge6" class="edge"><title>A.C&#45;&gt;A</title>
<path fill="none" stroke="black" d="M88.7875,-42.0371C115.624,-54.3731 154.654,-77.1645 171.973,-110.995 206.798,-179.02 176.689,-272.778 158.46,-317.357"/>
<polygon fill="black" stroke="black" points="155.225,-316.021 154.561,-326.595 161.674,-318.743 155.225,-316.021"/>
<text text-anchor="middle" x="190.473" y="-209.689" font-family="Times New Roman,serif" font-size="14.00">0</text>
</g>
<!-- A.C&#45;&gt;A.B -->
<g id="edge7" class="edge"><title>A.C&#45;&gt;A.B</title>
<path fill="none" stroke="black" d="M54.3363,-59.3257C51.1072,-74.5459 47.5816,-93.6894 45.9731,-110.995 42.8104,-145.024 42.2705,-153.915 45.9731,-187.889 47.4773,-201.691 50.6507,-216.795 53.6929,-229.255"/>
<polygon fill="black" stroke="black" points="50.3181,-230.186 56.1779,-239.012 57.1016,-228.458 50.3181,-230.186"/>
<text text-anchor="middle" x="49.4731" y="-145.742" font-family="Times New Roman,serif" font-size="14.00">1</text>
</g>
<!-- A.B&#45;&gt;A.C -->
<g id="edge4" class="edge"><title>A.B&#45;&gt;A.C</title>
<path fill="none" stroke="black" d="M44.0202,-242.849C36.873,-236.743 28.8633,-229.027 22.9731,-220.889 -5.93093,-180.958 -2.46254,-159.173 7.97311,-110.995 12.0123,-92.3482 23.0443,-74.3751 34.0043,-60.2048"/>
<polygon fill="black" stroke="black" points="36.8147,-62.296 40.3956,-52.3247 31.3781,-57.8865 36.8147,-62.296"/>
<text text-anchor="middle" x="11.4731" y="-145.742" font-family="Times New Roman,serif" font-size="14.00">0</text>
</g>
<!-- A.B.C -->
<g id="node6" class="node"><title>A.B.C</title>
<ellipse fill="none" stroke="black" cx="99.9731" cy="-149.442" rx="34.3995" ry="34.3995"/>
<ellipse fill="none" stroke="black" cx="99.9731" cy="-149.442" rx="38.394" ry="38.394"/>
<text text-anchor="middle" x="99.9731" y="-145.742" font-family="Times New Roman,serif" font-size="14.00">A.B.C</text>
</g>
<!-- A.B&#45;&gt;A.B.C -->
<g id="edge5" class="edge"><title>A.B&#45;&gt;A.B.C</title>
<path fill="none" stroke="black" d="M67.2391,-238.947C71.6256,-227.087 77.7037,-210.654 83.4328,-195.163"/>
<polygon fill="black" stroke="black" points="86.7504,-196.283 86.9367,-185.69 80.1851,-193.855 86.7504,-196.283"/>
<text text-anchor="middle" x="82.4731" y="-209.689" font-family="Times New Roman,serif" font-size="14.00">1</text>
</g>
<!-- A.B.C&#45;&gt;A.C -->
<g id="edge8" class="edge"><title>A.B.C&#45;&gt;A.C</title>
<path fill="none" stroke="black" d="M88.0599,-112.567C83.4454,-98.6706 78.1593,-82.7521 73.489,-68.688"/>
<polygon fill="black" stroke="black" points="76.6888,-67.2178 70.2156,-58.8304 70.0455,-69.4239 76.6888,-67.2178"/>
<text text-anchor="middle" x="83.4731" y="-81.7954" font-family="Times New Roman,serif" font-size="14.00">0</text>
</g>
<!-- A.B.C&#45;&gt;A.B.C -->
<g id="edge9" class="edge"><title>A.B.C&#45;&gt;A.B.C</title>
<path fill="none" stroke="black" d="M136.89,-161.042C147.874,-160.696 156.42,-156.829 156.42,-149.442 156.42,-144.595 152.739,-141.263 147.105,-139.448"/>
<polygon fill="black" stroke="black" points="147.312,-135.938 136.89,-137.843 146.225,-142.853 147.312,-135.938"/>
<text text-anchor="middle" x="159.92" y="-145.742" font-family="Times New Roman,serif" font-size="14.00">1</text>
</g>
</g>
</svg>
