<?xml version="1.0" encoding="UTF-8" standalone="no"?>
<!DOCTYPE svg PUBLIC "-//W3C//DTD SVG 1.1//EN"
 "http://www.w3.org/Graphics/SVG/1.1/DTD/svg11.dtd">
<!-- Generated by graphviz version 2.38.0 (20140413.2041)
 -->
<!-- Title: %3 Pages: 1 -->
<svg width="113pt" height="402pt"
 viewBox="0.00 0.00 113.00 402.00" xmlns="http://www.w3.org/2000/svg" xmlns:xlink="http://www.w3.org/1999/xlink">
<g id="graph0" class="graph" transform="scale(1 1) rotate(0) translate(4 398)">
<title>%3</title>
<polygon fill="white" stroke="none" points="-4,4 -4,-398 109,-398 109,4 -4,4"/>
<!-- fake -->
<g id="node1" class="node"><title>fake</title>
</g>
<!-- A -->
<g id="node3" class="node"><title>A</title>
<ellipse fill="none" stroke="black" cx="27" cy="-299" rx="18" ry="18"/>
<ellipse fill="none" stroke="black" cx="27" cy="-299" rx="22" ry="22"/>
<text text-anchor="middle" x="27" y="-295.3" font-family="Times New Roman,serif" font-size="14.00">A</text>
</g>
<!-- fake&#45;&gt;A -->
<g id="edge1" class="edge"><title>fake&#45;&gt;A</title>
<path fill="none" stroke="black" stroke-width="2" d="M27,-357.981C27,-350.153 27,-340.608 27,-331.539"/>
<polygon fill="black" stroke="black" stroke-width="2" points="30.5001,-331.244 27,-321.244 23.5001,-331.244 30.5001,-331.244"/>
</g>
<!-- D -->
<g id="node2" class="node"><title>D</title>
<ellipse fill="none" stroke="black" cx="27" cy="-18" rx="27" ry="18"/>
<text text-anchor="middle" x="27" y="-14.3" font-family="Times New Roman,serif" font-size="14.00">D</text>
</g>
<!-- D&#45;&gt;D -->
<g id="edge8" class="edge"><title>D&#45;&gt;D</title>
<path fill="none" stroke="black" d="M53.7949,-21.9288C63.7804,-22.0577 72,-20.748 72,-18 72,-16.2825 68.7892,-15.1268 63.9433,-14.5331"/>
<polygon fill="black" stroke="black" points="63.9437,-11.0296 53.7949,-14.0712 63.6253,-18.0223 63.9437,-11.0296"/>
<text text-anchor="middle" x="75.5" y="-14.3" font-family="Times New Roman,serif" font-size="14.00">a</text>
</g>
<!-- D&#45;&gt;D -->
<g id="edge9" class="edge"><title>D&#45;&gt;D</title>
<path fill="none" stroke="black" d="M52.2292,-24.9445C71.0405,-27.3695 90,-25.0547 90,-18 90,-12.213 77.2419,-9.61542 62.2732,-10.2074"/>
<polygon fill="black" stroke="black" points="61.8992,-6.72644 52.2292,-11.0555 62.4882,-13.7016 61.8992,-6.72644"/>
<text text-anchor="middle" x="94" y="-14.3" font-family="Times New Roman,serif" font-size="14.00">b</text>
</g>
<!-- A&#45;&gt;A -->
<g id="edge3" class="edge"><title>A&#45;&gt;A</title>
<path fill="none" stroke="black" d="M47.9908,-306.317C58.0872,-307.22 67,-304.781 67,-299 67,-295.296 63.3422,-292.964 58.0587,-292.004"/>
<polygon fill="black" stroke="black" points="58.0973,-288.504 47.9908,-291.683 57.8741,-295.5 58.0973,-288.504"/>
<text text-anchor="middle" x="71" y="-295.3" font-family="Times New Roman,serif" font-size="14.00">b</text>
</g>
<!-- B -->
<g id="node4" class="node"><title>B</title>
<ellipse fill="none" stroke="black" cx="27" cy="-204" rx="18" ry="18"/>
<ellipse fill="none" stroke="black" cx="27" cy="-204" rx="22" ry="22"/>
<text text-anchor="middle" x="27" y="-200.3" font-family="Times New Roman,serif" font-size="14.00">B</text>
</g>
<!-- A&#45;&gt;B -->
<g id="edge2" class="edge"><title>A&#45;&gt;B</title>
<path fill="none" stroke="black" d="M19.0667,-278.374C15.8584,-268.184 13.2721,-255.491 15,-244 15.4592,-240.946 16.11,-237.801 16.8738,-234.685"/>
<polygon fill="black" stroke="black" points="20.2664,-235.55 19.6025,-224.976 13.5275,-233.656 20.2664,-235.55"/>
<text text-anchor="middle" x="18.5" y="-247.8" font-family="Times New Roman,serif" font-size="14.00">a</text>
</g>
<!-- B&#45;&gt;A -->
<g id="edge5" class="edge"><title>B&#45;&gt;A</title>
<path fill="none" stroke="black" d="M27,-226.02C27,-238.014 27,-253.281 27,-266.665"/>
<polygon fill="black" stroke="black" points="23.5001,-266.897 27,-276.897 30.5001,-266.897 23.5001,-266.897"/>
<text text-anchor="middle" x="31" y="-247.8" font-family="Times New Roman,serif" font-size="14.00">b</text>
</g>
<!-- C -->
<g id="node5" class="node"><title>C</title>
<ellipse fill="none" stroke="black" cx="27" cy="-109" rx="18" ry="18"/>
<ellipse fill="none" stroke="black" cx="27" cy="-109" rx="22" ry="22"/>
<text text-anchor="middle" x="27" y="-105.3" font-family="Times New Roman,serif" font-size="14.00">C</text>
</g>
<!-- B&#45;&gt;C -->
<g id="edge4" class="edge"><title>B&#45;&gt;C</title>
<path fill="none" stroke="black" d="M27,-181.897C27,-169.887 27,-154.617 27,-141.242"/>
<polygon fill="black" stroke="black" points="30.5001,-141.02 27,-131.02 23.5001,-141.02 30.5001,-141.02"/>
<text text-anchor="middle" x="30.5" y="-152.8" font-family="Times New Roman,serif" font-size="14.00">a</text>
</g>
<!-- C&#45;&gt;D -->
<g id="edge7" class="edge"><title>C&#45;&gt;D</title>
<path fill="none" stroke="black" d="M27,-86.9082C27,-74.7803 27,-59.4094 27,-46.3598"/>
<polygon fill="black" stroke="black" points="30.5001,-46.0663 27,-36.0663 23.5001,-46.0663 30.5001,-46.0663"/>
<text text-anchor="middle" x="31" y="-57.8" font-family="Times New Roman,serif" font-size="14.00">b</text>
</g>
<!-- C&#45;&gt;C -->
<g id="edge6" class="edge"><title>C&#45;&gt;C</title>
<path fill="none" stroke="black" d="M47.5808,-117.37C57.8447,-118.528 67,-115.738 67,-109 67,-104.683 63.2427,-101.987 57.8436,-100.911"/>
<polygon fill="black" stroke="black" points="57.6729,-97.405 47.5808,-100.63 57.4812,-104.402 57.6729,-97.405"/>
<text text-anchor="middle" x="70.5" y="-105.3" font-family="Times New Roman,serif" font-size="14.00">a</text>
</g>
</g>
</svg>
