<?xml version="1.0" encoding="UTF-8" standalone="no"?>
<!DOCTYPE svg PUBLIC "-//W3C//DTD SVG 1.1//EN"
 "http://www.w3.org/Graphics/SVG/1.1/DTD/svg11.dtd">
<!-- Generated by graphviz version 2.38.0 (20140413.2041)
 -->
<!-- Title: %3 Pages: 1 -->
<svg width="234pt" height="409pt"
 viewBox="0.00 0.00 234.35 408.70" xmlns="http://www.w3.org/2000/svg" xmlns:xlink="http://www.w3.org/1999/xlink">
<g id="graph0" class="graph" transform="scale(1 1) rotate(0) translate(4 404.696)">
<title>%3</title>
<polygon fill="white" stroke="none" points="-4,4 -4,-404.696 230.348,-404.696 230.348,4 -4,4"/>
<!-- fake -->
<g id="node1" class="node"><title>fake</title>
</g>
<!-- A -->
<g id="node6" class="node"><title>A</title>
<ellipse fill="none" stroke="black" cx="46.3478" cy="-309.696" rx="27" ry="18"/>
<text text-anchor="middle" x="46.3478" y="-305.996" font-family="Times New Roman,serif" font-size="14.00">A</text>
</g>
<!-- fake&#45;&gt;A -->
<g id="edge1" class="edge"><title>fake&#45;&gt;A</title>
<path fill="none" stroke="black" stroke-width="2" d="M46.3478,-364.508C46.3478,-356.485 46.3478,-346.743 46.3478,-337.765"/>
<polygon fill="black" stroke="black" stroke-width="2" points="49.8479,-337.724 46.3478,-327.724 42.8479,-337.724 49.8479,-337.724"/>
</g>
<!-- A.B -->
<g id="node2" class="node"><title>A.B</title>
<ellipse fill="none" stroke="black" cx="51.3478" cy="-127.696" rx="27" ry="18"/>
<text text-anchor="middle" x="51.3478" y="-123.996" font-family="Times New Roman,serif" font-size="14.00">A.B</text>
</g>
<!-- A.B&#45;&gt;A.B -->
<g id="edge4" class="edge"><title>A.B&#45;&gt;A.B</title>
<path fill="none" stroke="black" d="M75.8802,-135.447C86.8556,-136.186 96.3478,-133.602 96.3478,-127.696 96.3478,-123.727 92.0628,-121.259 85.9221,-120.29"/>
<polygon fill="black" stroke="black" points="85.995,-116.79 75.8802,-119.944 85.7536,-123.786 85.995,-116.79"/>
<text text-anchor="middle" x="99.8478" y="-123.996" font-family="Times New Roman,serif" font-size="14.00">a</text>
</g>
<!-- B.C -->
<g id="node4" class="node"><title>B.C</title>
<ellipse fill="none" stroke="black" cx="29.3478" cy="-29.3478" rx="25.2169" ry="25.2169"/>
<ellipse fill="none" stroke="black" cx="29.3478" cy="-29.3478" rx="29.1963" ry="29.1963"/>
<text text-anchor="middle" x="29.3478" y="-25.6478" font-family="Times New Roman,serif" font-size="14.00">B.C</text>
</g>
<!-- A.B&#45;&gt;B.C -->
<g id="edge5" class="edge"><title>A.B&#45;&gt;B.C</title>
<path fill="none" stroke="black" d="M40.2424,-111.047C36.7228,-105.243 33.254,-98.4294 31.3478,-91.6955 29.3123,-84.5053 28.2419,-76.651 27.7606,-69.036"/>
<polygon fill="black" stroke="black" points="31.2539,-68.7673 27.4341,-58.885 24.2575,-68.9924 31.2539,-68.7673"/>
<text text-anchor="middle" x="35.3478" y="-80.4955" font-family="Times New Roman,serif" font-size="14.00">b</text>
</g>
<!-- C -->
<g id="node3" class="node"><title>C</title>
<ellipse fill="none" stroke="black" cx="93.3478" cy="-218.696" rx="18" ry="18"/>
<ellipse fill="none" stroke="black" cx="93.3478" cy="-218.696" rx="22" ry="22"/>
<text text-anchor="middle" x="93.3478" y="-214.996" font-family="Times New Roman,serif" font-size="14.00">C</text>
</g>
<!-- C&#45;&gt;A.B -->
<g id="edge6" class="edge"><title>C&#45;&gt;A.B</title>
<path fill="none" stroke="black" d="M84.2344,-198.384C78.1184,-185.424 69.9968,-168.214 63.3549,-154.139"/>
<polygon fill="black" stroke="black" points="66.469,-152.537 59.0359,-144.987 60.1385,-155.524 66.469,-152.537"/>
<text text-anchor="middle" x="78.3478" y="-167.496" font-family="Times New Roman,serif" font-size="14.00">b</text>
</g>
<!-- sink -->
<g id="node5" class="node"><title>sink</title>
<ellipse fill="none" stroke="black" cx="148.348" cy="-127.696" rx="27" ry="18"/>
<text text-anchor="middle" x="148.348" y="-123.996" font-family="Times New Roman,serif" font-size="14.00">sink</text>
</g>
<!-- C&#45;&gt;sink -->
<g id="edge9" class="edge"><title>C&#45;&gt;sink</title>
<path fill="none" stroke="black" d="M104.478,-199.685C112.744,-186.309 124.113,-167.912 133.205,-153.199"/>
<polygon fill="black" stroke="black" points="136.245,-154.938 138.525,-144.591 130.29,-151.258 136.245,-154.938"/>
<text text-anchor="middle" x="128.848" y="-167.496" font-family="Times New Roman,serif" font-size="14.00">a</text>
</g>
<!-- B.C&#45;&gt;A.B -->
<g id="edge8" class="edge"><title>B.C&#45;&gt;A.B</title>
<path fill="none" stroke="black" d="M35.7475,-58.3753C38.6959,-71.2874 42.182,-86.5548 45.1102,-99.3786"/>
<polygon fill="black" stroke="black" points="41.7762,-100.501 47.4146,-109.47 48.6006,-98.9422 41.7762,-100.501"/>
<text text-anchor="middle" x="46.3478" y="-80.4955" font-family="Times New Roman,serif" font-size="14.00">b</text>
</g>
<!-- B.C&#45;&gt;A -->
<g id="edge7" class="edge"><title>B.C&#45;&gt;A</title>
<path fill="none" stroke="black" d="M23.2263,-58.0984C20.1924,-73.2594 16.8605,-92.4159 15.3478,-109.696 9.89866,-171.94 27.1622,-244.252 38.0847,-282.246"/>
<polygon fill="black" stroke="black" points="34.7814,-283.418 40.9731,-292.016 41.4942,-281.434 34.7814,-283.418"/>
<text text-anchor="middle" x="20.8478" y="-167.496" font-family="Times New Roman,serif" font-size="14.00">a</text>
</g>
<!-- sink&#45;&gt;sink -->
<g id="edge10" class="edge"><title>sink&#45;&gt;sink</title>
<path fill="none" stroke="black" d="M175.143,-131.624C185.128,-131.753 193.348,-130.444 193.348,-127.696 193.348,-125.978 190.137,-124.822 185.291,-124.229"/>
<polygon fill="black" stroke="black" points="185.291,-120.725 175.143,-123.767 184.973,-127.718 185.291,-120.725"/>
<text text-anchor="middle" x="197.348" y="-123.996" font-family="Times New Roman,serif" font-size="14.00">b</text>
</g>
<!-- sink&#45;&gt;sink -->
<g id="edge11" class="edge"><title>sink&#45;&gt;sink</title>
<path fill="none" stroke="black" d="M173.577,-134.64C192.388,-137.065 211.348,-134.75 211.348,-127.696 211.348,-121.908 198.59,-119.311 183.621,-119.903"/>
<polygon fill="black" stroke="black" points="183.247,-116.422 173.577,-120.751 183.836,-123.397 183.247,-116.422"/>
<text text-anchor="middle" x="214.848" y="-123.996" font-family="Times New Roman,serif" font-size="14.00">a</text>
</g>
<!-- A&#45;&gt;A.B -->
<g id="edge2" class="edge"><title>A&#45;&gt;A.B</title>
<path fill="none" stroke="black" d="M46.8272,-291.436C47.697,-260.122 49.5416,-193.717 50.5857,-156.13"/>
<polygon fill="black" stroke="black" points="54.0907,-155.996 50.8698,-145.902 47.0934,-155.801 54.0907,-155.996"/>
<text text-anchor="middle" x="52.8478" y="-214.996" font-family="Times New Roman,serif" font-size="14.00">a</text>
</g>
<!-- A&#45;&gt;C -->
<g id="edge3" class="edge"><title>A&#45;&gt;C</title>
<path fill="none" stroke="black" d="M54.9683,-292.372C61.577,-279.857 70.8527,-262.293 78.6296,-247.566"/>
<polygon fill="black" stroke="black" points="81.9058,-248.857 83.4807,-238.38 75.7159,-245.588 81.9058,-248.857"/>
<text text-anchor="middle" x="76.3478" y="-262.496" font-family="Times New Roman,serif" font-size="14.00">b</text>
</g>
</g>
</svg>
