<?xml version="1.0" encoding="UTF-8" standalone="no"?>
<!DOCTYPE svg PUBLIC "-//W3C//DTD SVG 1.1//EN"
 "http://www.w3.org/Graphics/SVG/1.1/DTD/svg11.dtd">
<!-- Generated by graphviz version 2.38.0 (20140413.2041)
 -->
<!-- Title: %3 Pages: 1 -->
<svg width="168pt" height="226pt"
 viewBox="0.00 0.00 167.55 226.00" xmlns="http://www.w3.org/2000/svg" xmlns:xlink="http://www.w3.org/1999/xlink">
<g id="graph0" class="graph" transform="scale(1 1) rotate(0) translate(4 222)">
<title>%3</title>
<polygon fill="white" stroke="none" points="-4,4 -4,-222 163.547,-222 163.547,4 -4,4"/>
<!-- fake0 -->
<g id="node1" class="node"><title>fake0</title>
</g>
<!-- A -->
<g id="node3" class="node"><title>A</title>
<ellipse fill="none" stroke="black" cx="57.5473" cy="-109" rx="18" ry="18"/>
<ellipse fill="none" stroke="black" cx="57.5473" cy="-109" rx="22" ry="22"/>
<text text-anchor="middle" x="57.5473" y="-105.3" font-family="Times New Roman,serif" font-size="14.00">A</text>
</g>
<!-- fake0&#45;&gt;A -->
<g id="edge1" class="edge"><title>fake0&#45;&gt;A</title>
<path fill="none" stroke="black" stroke-width="2" d="M35.7532,-181.84C39.3538,-169.971 44.2397,-153.866 48.4728,-139.912"/>
<polygon fill="black" stroke="black" stroke-width="2" points="51.8583,-140.809 51.4121,-130.223 45.1597,-138.777 51.8583,-140.809"/>
</g>
<!-- C -->
<g id="node2" class="node"><title>C</title>
<ellipse fill="none" stroke="black" cx="106.547" cy="-200" rx="27" ry="18"/>
<text text-anchor="middle" x="106.547" y="-196.3" font-family="Times New Roman,serif" font-size="14.00">C</text>
</g>
<!-- C&#45;&gt;C -->
<g id="edge7" class="edge"><title>C&#45;&gt;C</title>
<path fill="none" stroke="black" d="M131.08,-207.752C142.055,-208.49 151.547,-205.906 151.547,-200 151.547,-196.032 147.262,-193.563 141.122,-192.594"/>
<polygon fill="black" stroke="black" points="141.194,-189.095 131.08,-192.248 140.953,-196.091 141.194,-189.095"/>
<text text-anchor="middle" x="155.547" y="-196.3" font-family="Times New Roman,serif" font-size="14.00">b</text>
</g>
<!-- C&#45;&gt;A -->
<g id="edge6" class="edge"><title>C&#45;&gt;A</title>
<path fill="none" stroke="black" d="M97.5599,-182.676C90.6044,-170.043 80.8152,-152.262 72.6605,-137.45"/>
<polygon fill="black" stroke="black" points="75.7233,-135.756 67.8342,-128.684 69.5912,-139.133 75.7233,-135.756"/>
<text text-anchor="middle" x="89.0473" y="-152.8" font-family="Times New Roman,serif" font-size="14.00">a</text>
</g>
<!-- A&#45;&gt;A -->
<g id="edge2" class="edge"><title>A&#45;&gt;A</title>
<path fill="none" stroke="black" d="M78.1281,-117.37C88.392,-118.528 97.5473,-115.738 97.5473,-109 97.5473,-104.683 93.79,-101.987 88.3909,-100.911"/>
<polygon fill="black" stroke="black" points="88.2202,-97.405 78.1281,-100.63 88.0285,-104.402 88.2202,-97.405"/>
<text text-anchor="middle" x="101.047" y="-105.3" font-family="Times New Roman,serif" font-size="14.00">a</text>
</g>
<!-- B -->
<g id="node4" class="node"><title>B</title>
<ellipse fill="none" stroke="black" cx="57.5473" cy="-18" rx="27" ry="18"/>
<text text-anchor="middle" x="57.5473" y="-14.3" font-family="Times New Roman,serif" font-size="14.00">B</text>
</g>
<!-- A&#45;&gt;B -->
<g id="edge3" class="edge"><title>A&#45;&gt;B</title>
<path fill="none" stroke="black" d="M48.8802,-88.6202C45.3213,-78.3856 42.4664,-65.5788 44.5473,-54 45.074,-51.0693 45.8303,-48.0634 46.7168,-45.1036"/>
<polygon fill="black" stroke="black" points="50.114,-45.9897 50.088,-35.3949 43.5013,-43.6935 50.114,-45.9897"/>
<text text-anchor="middle" x="48.5473" y="-57.8" font-family="Times New Roman,serif" font-size="14.00">b</text>
</g>
<!-- B&#45;&gt;A -->
<g id="edge4" class="edge"><title>B&#45;&gt;A</title>
<path fill="none" stroke="black" d="M57.5473,-36.0663C57.5473,-47.606 57.5473,-63.1817 57.5473,-76.8886"/>
<polygon fill="black" stroke="black" points="54.0474,-76.9082 57.5473,-86.9082 61.0474,-76.9083 54.0474,-76.9082"/>
<text text-anchor="middle" x="61.0473" y="-57.8" font-family="Times New Roman,serif" font-size="14.00">a</text>
</g>
<!-- B&#45;&gt;B -->
<g id="edge5" class="edge"><title>B&#45;&gt;B</title>
<path fill="none" stroke="black" d="M82.0798,-25.752C93.0551,-26.4902 102.547,-23.9063 102.547,-18 102.547,-14.0317 98.2624,-11.5632 92.1216,-10.5944"/>
<polygon fill="black" stroke="black" points="92.1945,-7.09491 82.0798,-10.248 91.9531,-14.0908 92.1945,-7.09491"/>
<text text-anchor="middle" x="106.547" y="-14.3" font-family="Times New Roman,serif" font-size="14.00">b</text>
</g>
</g>
</svg>
