<?xml version="1.0" encoding="UTF-8" standalone="no"?>
<!DOCTYPE svg PUBLIC "-//W3C//DTD SVG 1.1//EN"
 "http://www.w3.org/Graphics/SVG/1.1/DTD/svg11.dtd">
<!-- Generated by graphviz version 2.38.0 (20140413.2041)
 -->
<!-- Title: %3 Pages: 1 -->
<svg width="137pt" height="125pt"
 viewBox="0.00 0.00 136.55 125.00" xmlns="http://www.w3.org/2000/svg" xmlns:xlink="http://www.w3.org/1999/xlink">
<g id="graph0" class="graph" transform="scale(1 1) rotate(0) translate(4 121)">
<title>%3</title>
<polygon fill="white" stroke="none" points="-4,4 -4,-121 132.547,-121 132.547,4 -4,4"/>
<!-- fake0 -->
<g id="node1" class="node"><title>fake0</title>
</g>
<!-- A -->
<g id="node2" class="node"><title>A</title>
<ellipse fill="none" stroke="black" cx="30.5473" cy="-22" rx="18" ry="18"/>
<ellipse fill="none" stroke="black" cx="30.5473" cy="-22" rx="22" ry="22"/>
<text text-anchor="middle" x="30.5473" y="-18.3" font-family="Times New Roman,serif" font-size="14.00">A</text>
</g>
<!-- fake0&#45;&gt;A -->
<g id="edge1" class="edge"><title>fake0&#45;&gt;A</title>
<path fill="none" stroke="black" stroke-width="2" d="M30.5473,-80.9813C30.5473,-73.1533 30.5473,-63.6076 30.5473,-54.5392"/>
<polygon fill="black" stroke="black" stroke-width="2" points="34.0474,-54.2444 30.5473,-44.2444 27.0474,-54.2445 34.0474,-54.2444"/>
</g>
<!-- A&#45;&gt;A -->
<g id="edge2" class="edge"><title>A&#45;&gt;A</title>
<path fill="none" stroke="black" d="M52.7596,-24.4701C62.3425,-24.6723 70.5473,-23.849 70.5473,-22 70.5473,-20.8733 67.5006,-20.1274 62.9518,-19.7624"/>
<polygon fill="black" stroke="black" points="62.8369,-16.259 52.7596,-19.5299 62.6772,-23.2571 62.8369,-16.259"/>
<text text-anchor="middle" x="74.0473" y="-18.3" font-family="Times New Roman,serif" font-size="14.00">a</text>
</g>
<!-- A&#45;&gt;A -->
<g id="edge3" class="edge"><title>A&#45;&gt;A</title>
<path fill="none" stroke="black" d="M52.2646,-26.2673C70.063,-28.0318 88.5473,-26.6094 88.5473,-22 88.5473,-18.2909 76.5783,-16.6454 62.629,-17.0635"/>
<polygon fill="black" stroke="black" points="62.0183,-13.5956 52.2646,-17.7327 62.4694,-20.581 62.0183,-13.5956"/>
<text text-anchor="middle" x="92.5473" y="-18.3" font-family="Times New Roman,serif" font-size="14.00">b</text>
</g>
<!-- A&#45;&gt;A -->
<g id="edge4" class="edge"><title>A&#45;&gt;A</title>
<path fill="none" stroke="black" d="M51.9436,-27.4451C77.1497,-31.4322 106.547,-29.6172 106.547,-22 106.547,-15.3945 84.4399,-13.1522 62.1298,-15.2733"/>
<polygon fill="black" stroke="black" points="61.4284,-11.8339 51.9436,-16.5549 62.3023,-18.7791 61.4284,-11.8339"/>
<text text-anchor="middle" x="110.047" y="-18.3" font-family="Times New Roman,serif" font-size="14.00">c</text>
</g>
</g>
</svg>
