<?xml version="1.0" encoding="UTF-8" standalone="no"?>
<!DOCTYPE svg PUBLIC "-//W3C//DTD SVG 1.1//EN"
 "http://www.w3.org/Graphics/SVG/1.1/DTD/svg11.dtd">
<!-- Generated by graphviz version 2.38.0 (20140413.2041)
 -->
<!-- Title: %3 Pages: 1 -->
<svg width="116pt" height="299pt"
 viewBox="0.00 0.00 115.55 299.00" xmlns="http://www.w3.org/2000/svg" xmlns:xlink="http://www.w3.org/1999/xlink">
<g id="graph0" class="graph" transform="scale(1 1) rotate(0) translate(4 295)">
<title>%3</title>
<polygon fill="white" stroke="none" points="-4,4 -4,-295 111.547,-295 111.547,4 -4,4"/>
<!-- fake0 -->
<g id="node1" class="node"><title>fake0</title>
</g>
<!-- A -->
<g id="node4" class="node"><title>A</title>
<ellipse fill="none" stroke="black" cx="30.5473" cy="-200" rx="27" ry="18"/>
<text text-anchor="middle" x="30.5473" y="-196.3" font-family="Times New Roman,serif" font-size="14.00">A</text>
</g>
<!-- fake0&#45;&gt;A -->
<g id="edge1" class="edge"><title>fake0&#45;&gt;A</title>
<path fill="none" stroke="black" stroke-width="2" d="M30.5473,-254.813C30.5473,-246.789 30.5473,-237.047 30.5473,-228.069"/>
<polygon fill="black" stroke="black" stroke-width="2" points="34.0474,-228.029 30.5473,-218.029 27.0474,-228.029 34.0474,-228.029"/>
</g>
<!-- B -->
<g id="node2" class="node"><title>B</title>
<ellipse fill="none" stroke="black" cx="30.5473" cy="-113" rx="27" ry="18"/>
<text text-anchor="middle" x="30.5473" y="-109.3" font-family="Times New Roman,serif" font-size="14.00">B</text>
</g>
<!-- C -->
<g id="node3" class="node"><title>C</title>
<ellipse fill="none" stroke="black" cx="30.5473" cy="-22" rx="18" ry="18"/>
<ellipse fill="none" stroke="black" cx="30.5473" cy="-22" rx="22" ry="22"/>
<text text-anchor="middle" x="30.5473" y="-18.3" font-family="Times New Roman,serif" font-size="14.00">C</text>
</g>
<!-- B&#45;&gt;C -->
<g id="edge5" class="edge"><title>B&#45;&gt;C</title>
<path fill="none" stroke="black" d="M23.6592,-95.5563C21.5833,-89.7939 19.5822,-83.2095 18.5473,-77 17.219,-69.0301 18.0598,-60.4663 19.7875,-52.5599"/>
<polygon fill="black" stroke="black" points="23.2355,-53.2164 22.4618,-42.6499 16.4772,-51.3926 23.2355,-53.2164"/>
<text text-anchor="middle" x="22.0473" y="-65.8" font-family="Times New Roman,serif" font-size="14.00">0</text>
</g>
<!-- B&#45;&gt;C -->
<g id="edge6" class="edge"><title>B&#45;&gt;C</title>
<path fill="none" stroke="black" d="M30.5473,-94.8399C30.5473,-83.4407 30.5473,-68.1336 30.5473,-54.5781"/>
<polygon fill="black" stroke="black" points="34.0474,-54.1905 30.5473,-44.1905 27.0474,-54.1906 34.0474,-54.1905"/>
<text text-anchor="middle" x="34.0473" y="-65.8" font-family="Times New Roman,serif" font-size="14.00">1</text>
</g>
<!-- A&#45;&gt;B -->
<g id="edge3" class="edge"><title>A&#45;&gt;B</title>
<path fill="none" stroke="black" d="M30.5473,-181.799C30.5473,-170.163 30.5473,-154.548 30.5473,-141.237"/>
<polygon fill="black" stroke="black" points="34.0474,-141.175 30.5473,-131.175 27.0474,-141.175 34.0474,-141.175"/>
<text text-anchor="middle" x="34.0473" y="-152.8" font-family="Times New Roman,serif" font-size="14.00">1</text>
</g>
<!-- A&#45;&gt;A -->
<g id="edge2" class="edge"><title>A&#45;&gt;A</title>
<path fill="none" stroke="black" d="M57.3421,-203.368C67.3277,-203.478 75.5473,-202.355 75.5473,-200 75.5473,-198.528 72.3365,-197.537 67.4905,-197.028"/>
<polygon fill="black" stroke="black" points="67.471,-193.525 57.3421,-196.632 67.1981,-200.52 67.471,-193.525"/>
<text text-anchor="middle" x="79.0473" y="-196.3" font-family="Times New Roman,serif" font-size="14.00">0</text>
</g>
<!-- A&#45;&gt;A -->
<g id="edge4" class="edge"><title>A&#45;&gt;A</title>
<path fill="none" stroke="black" d="M56.1046,-205.988C74.8076,-208.008 93.5473,-206.012 93.5473,-200 93.5473,-195.069 80.9371,-192.839 66.0813,-193.312"/>
<polygon fill="black" stroke="black" points="65.8352,-189.821 56.1046,-194.012 66.325,-196.803 65.8352,-189.821"/>
<text text-anchor="middle" x="97.0473" y="-196.3" font-family="Times New Roman,serif" font-size="14.00">1</text>
</g>
</g>
</svg>
